<svg width="252" height="264" viewBox="0 0 252 264" fill="none" xmlns="http://www.w3.org/2000/svg">
<g clip-path="url(#clip0_9_232)">
<g filter="url(#filter0_dd_9_232)">
<ellipse cx="126" cy="132" rx="126" ry="132" fill="#E2D9D9"/>
</g>
<path d="M252 132C252 157.19 245.12 181.854 232.172 203.08C219.225 224.305 200.75 241.207 178.929 251.789C157.109 262.37 132.854 266.19 109.028 262.797C85.2026 259.404 62.801 248.94 44.4686 232.64C26.1362 216.341 12.6384 194.886 5.56896 170.809C-1.5005 146.733 -1.84642 121.04 4.57204 96.7643C10.9905 72.4885 23.9053 50.6436 41.7916 33.8087C59.6779 16.9738 81.7889 5.85201 105.514 1.75641L112.356 45.257C96.5551 47.9847 81.8291 55.3919 69.9167 66.604C58.0043 77.8161 49.403 92.365 45.1283 108.533C40.8535 124.701 41.0839 141.812 45.7922 157.847C50.5005 173.882 59.4901 188.171 71.6996 199.027C83.9091 209.883 98.8287 216.852 114.697 219.112C130.565 221.371 146.719 218.827 161.251 211.78C175.784 204.733 188.088 193.476 196.711 179.339C205.335 165.203 209.917 148.777 209.917 132H252Z" fill="#72AFE7"/>
<g filter="url(#filter1_d_9_232)">
<path d="M68.0455 155L88.3636 114.818V114.477H64.8636V108.455H95.6364V114.682L75.3864 155H68.0455ZM118.682 155.636C115.561 155.636 112.773 155.098 110.318 154.023C107.879 152.947 105.947 151.455 104.523 149.545C103.114 147.621 102.356 145.394 102.25 142.864H109.386C109.477 144.242 109.939 145.439 110.773 146.455C111.621 147.455 112.727 148.227 114.091 148.773C115.455 149.318 116.97 149.591 118.636 149.591C120.47 149.591 122.091 149.273 123.5 148.636C124.924 148 126.038 147.114 126.841 145.977C127.644 144.826 128.045 143.5 128.045 142C128.045 140.439 127.644 139.068 126.841 137.886C126.053 136.689 124.894 135.75 123.364 135.068C121.848 134.386 120.015 134.045 117.864 134.045H113.932V128.318H117.864C119.591 128.318 121.106 128.008 122.409 127.386C123.727 126.765 124.758 125.902 125.5 124.795C126.242 123.674 126.614 122.364 126.614 120.864C126.614 119.424 126.288 118.174 125.636 117.114C125 116.038 124.091 115.197 122.909 114.591C121.742 113.985 120.364 113.682 118.773 113.682C117.258 113.682 115.841 113.962 114.523 114.523C113.22 115.068 112.159 115.856 111.341 116.886C110.523 117.902 110.083 119.121 110.023 120.545H103.227C103.303 118.03 104.045 115.818 105.455 113.909C106.879 112 108.758 110.508 111.091 109.432C113.424 108.356 116.015 107.818 118.864 107.818C121.848 107.818 124.424 108.402 126.591 109.568C128.773 110.72 130.455 112.258 131.636 114.182C132.833 116.106 133.424 118.212 133.409 120.5C133.424 123.106 132.697 125.318 131.227 127.136C129.773 128.955 127.833 130.174 125.409 130.795V131.159C128.5 131.629 130.894 132.856 132.591 134.841C134.303 136.826 135.152 139.288 135.136 142.227C135.152 144.788 134.439 147.083 133 149.114C131.576 151.144 129.629 152.742 127.159 153.909C124.689 155.061 121.864 155.636 118.682 155.636ZM168.023 146.273V143.818C168.023 142.061 168.386 140.455 169.114 139C169.856 137.53 170.932 136.356 172.341 135.477C173.765 134.583 175.485 134.136 177.5 134.136C179.561 134.136 181.288 134.576 182.682 135.455C184.076 136.333 185.129 137.508 185.841 138.977C186.568 140.447 186.932 142.061 186.932 143.818V146.273C186.932 148.03 186.568 149.644 185.841 151.114C185.114 152.568 184.045 153.742 182.636 154.636C181.242 155.515 179.53 155.955 177.5 155.955C175.455 155.955 173.727 155.515 172.318 154.636C170.909 153.742 169.841 152.568 169.114 151.114C168.386 149.644 168.023 148.03 168.023 146.273ZM173.318 143.818V146.273C173.318 147.576 173.629 148.758 174.25 149.818C174.871 150.879 175.955 151.409 177.5 151.409C179.03 151.409 180.098 150.879 180.705 149.818C181.311 148.758 181.614 147.576 181.614 146.273V143.818C181.614 142.515 181.318 141.333 180.727 140.273C180.152 139.212 179.076 138.682 177.5 138.682C175.985 138.682 174.909 139.212 174.273 140.273C173.636 141.333 173.318 142.515 173.318 143.818ZM144.614 119.636V117.182C144.614 115.424 144.977 113.811 145.705 112.341C146.447 110.871 147.523 109.697 148.932 108.818C150.356 107.939 152.076 107.5 154.091 107.5C156.152 107.5 157.879 107.939 159.273 108.818C160.667 109.697 161.72 110.871 162.432 112.341C163.144 113.811 163.5 115.424 163.5 117.182V119.636C163.5 121.394 163.136 123.008 162.409 124.477C161.697 125.932 160.636 127.106 159.227 128C157.833 128.879 156.121 129.318 154.091 129.318C152.03 129.318 150.295 128.879 148.886 128C147.492 127.106 146.432 125.932 145.705 124.477C144.977 123.008 144.614 121.394 144.614 119.636ZM149.932 117.182V119.636C149.932 120.939 150.235 122.121 150.841 123.182C151.462 124.242 152.545 124.773 154.091 124.773C155.606 124.773 156.667 124.242 157.273 123.182C157.894 122.121 158.205 120.939 158.205 119.636V117.182C158.205 115.879 157.909 114.697 157.318 113.636C156.727 112.576 155.652 112.045 154.091 112.045C152.576 112.045 151.5 112.576 150.864 113.636C150.242 114.697 149.932 115.879 149.932 117.182ZM146.773 155L178.773 108.455H184.205L152.205 155H146.773Z" fill="#254C70"/>
</g>
</g>
<defs>
<filter id="filter0_dd_9_232" x="-11" y="-6" width="274" height="286" filterUnits="userSpaceOnUse" color-interpolation-filters="sRGB">
<feFlood flood-opacity="0" result="BackgroundImageFix"/>
<feColorMatrix in="SourceAlpha" type="matrix" values="0 0 0 0 0 0 0 0 0 0 0 0 0 0 0 0 0 0 127 0" result="hardAlpha"/>
<feOffset dy="4"/>
<feGaussianBlur stdDeviation="2"/>
<feComposite in2="hardAlpha" operator="out"/>
<feColorMatrix type="matrix" values="0 0 0 0 0 0 0 0 0 0 0 0 0 0 0 0 0 0 0.25 0"/>
<feBlend mode="normal" in2="BackgroundImageFix" result="effect1_dropShadow_9_232"/>
<feColorMatrix in="SourceAlpha" type="matrix" values="0 0 0 0 0 0 0 0 0 0 0 0 0 0 0 0 0 0 127 0" result="hardAlpha"/>
<feMorphology radius="5" operator="dilate" in="SourceAlpha" result="effect2_dropShadow_9_232"/>
<feOffset dy="5"/>
<feGaussianBlur stdDeviation="3"/>
<feComposite in2="hardAlpha" operator="out"/>
<feColorMatrix type="matrix" values="0 0 0 0 0 0 0 0 0 0 0 0 0 0 0 0 0 0 0.25 0"/>
<feBlend mode="normal" in2="effect1_dropShadow_9_232" result="effect2_dropShadow_9_232"/>
<feBlend mode="normal" in="SourceGraphic" in2="effect2_dropShadow_9_232" result="shape"/>
</filter>
<filter id="filter1_d_9_232" x="60.8636" y="107.5" width="130.068" height="56.4545" filterUnits="userSpaceOnUse" color-interpolation-filters="sRGB">
<feFlood flood-opacity="0" result="BackgroundImageFix"/>
<feColorMatrix in="SourceAlpha" type="matrix" values="0 0 0 0 0 0 0 0 0 0 0 0 0 0 0 0 0 0 127 0" result="hardAlpha"/>
<feOffset dy="4"/>
<feGaussianBlur stdDeviation="2"/>
<feComposite in2="hardAlpha" operator="out"/>
<feColorMatrix type="matrix" values="0 0 0 0 0 0 0 0 0 0 0 0 0 0 0 0 0 0 0.25 0"/>
<feBlend mode="normal" in2="BackgroundImageFix" result="effect1_dropShadow_9_232"/>
<feBlend mode="normal" in="SourceGraphic" in2="effect1_dropShadow_9_232" result="shape"/>
</filter>
<clipPath id="clip0_9_232">
<rect width="252" height="264" fill="white"/>
</clipPath>
</defs>
</svg>
